<?xml version="1.0" encoding="utf-8"?>
<!-- Generator: Adobe Illustrator 27.4.1, SVG Export Plug-In . SVG Version: 6.00 Build 0)  -->
<svg version="1.1" id="Layer_1" xmlns="http://www.w3.org/2000/svg" xmlns:xlink="http://www.w3.org/1999/xlink" x="0px" y="0px"
	 viewBox="0 0 1080 1080" style="enable-background:new 0 0 1080 1080;" xml:space="preserve">
<style type="text/css">
	.st0{fill:#181818;}
	.st1{fill:#1A1A1A;}
</style>
<path class="st0" d="M496.17,661.76c4.93-13.66,9.56-26.62,14.27-39.55c23.47-64.41,47.06-128.78,70.3-193.28
	c2.14-5.95,4.94-7.69,11.06-7.67c79.66,0.2,159.33,0.23,239,0.09c46.62-0.08,87.35-27.21,102.76-68.01
	c23.76-62.87-17.15-131.24-84.14-140.35c-7.86-1.07-15.88-1.39-23.82-1.39c-219.21-0.07-438.42-0.04-657.62-0.06
	c-47.43,0-84.08-32.21-89.35-77.83c-0.83-7.21,1.16-8.55,7.93-8.55c246.45,0.16,492.9,0.13,739.35,0.14c5.4,0,10.79,0.04,16.19,0.21
	c107.37,3.33,190.69,94.87,184.14,202.25c-5.91,96.75-81.68,172.77-178.56,179.08c-7.69,0.5-15.4,0.74-23.1,0.75
	c-57.31,0.06-114.62,0.11-171.92-0.09c-6.05-0.02-9.14,1.76-11.26,7.69c-13.59,37.96-27.51,75.81-41.47,113.63
	c-8.22,22.26-23.81,33.28-47.37,33.56c-16.44,0.2-32.89,0.06-49.34,0.02C501.22,662.39,499.25,662.05,496.17,661.76z"/>
<path class="st0" d="M242.76,748.96c6.08-16.74,11.89-32.83,17.76-48.89c3.61-9.89,7.62-19.65,10.86-29.66
	c1.63-5.03,4.08-6.84,9.39-6.72c9.74,0.22,19.6,0.41,29.23-0.8c19.61-2.47,33.15-13.8,39.87-32.08
	c32.35-87.97,64.33-176.08,96.41-264.15c0.67-1.83,0.91-3.82,1.57-6.68c-3.78-0.23-6.76-0.56-9.74-0.57
	c-71.96-0.03-143.92,0.02-215.89-0.03c-47.18-0.03-81.8-29.72-89.06-76.21c-1.56-9.99-1.35-10.16,9.15-10.16
	c229.25,0.01,458.5,0.05,687.75-0.06c18.85-0.01,34.44,5.42,43.84,22.89c14.5,26.94-2.53,59.6-32.89,63.16
	c-3.81,0.45-7.7,0.39-11.55,0.39c-93.29,0.02-186.59,0.07-279.88-0.13c-6.41-0.01-9.48,1.9-11.72,8.07
	c-31.31,86.45-62.95,172.78-94.38,259.19c-6.97,19.16,4.61,36.3,25.01,37.23c8.11,0.37,16.24,0.06,25.67,0.06
	c-2.92,8.01-5.33,14.69-7.77,21.35c-7.15,19.53-14.44,39.02-21.36,58.63c-1.52,4.3-3.5,6.14-8.22,6.13
	c-69.39-0.12-138.78-0.08-208.17-0.12C246.98,749.8,245.31,749.34,242.76,748.96z"/>
<path class="st0" d="M358.9,421.26c0,0-13.21,36.12-19.48,53.41c-3.24,8.92-6.7,17.77-9.74,26.76c-1.45,4.29-3.73,5.99-8.41,5.92
	c-17.46-0.27-34.93,0.1-52.39-0.17c-44.16-0.68-80.89-35.05-84.45-78.51c-0.43-5.27,0.57-7.38,6.34-7.36
	c54.19,0.16,108.38,0.08,162.57,0.11C354.77,421.41,358.9,421.26,358.9,421.26z"/>
<g>
	<path class="st1" d="M191.38,893.21c0,19.56-12.46,31.75-34.43,31.75h-14.6v30.15h-24.25v-51.05h37.52
		c8.04,0,12.73-3.75,12.73-10.85c0-7.24-4.69-10.99-12.73-10.99H76.96v-20.9h79.99C178.92,861.32,191.38,873.51,191.38,893.21z"/>
	<path class="st1" d="M308.09,955.11l-16.61-30.15h-38.05v-20.9h38.45c8.17,0,12.73-3.75,12.73-10.85c0-7.24-4.56-10.99-12.73-10.99
		h-86.42v-20.9h87.76c21.97,0,34.57,12.19,34.57,31.89c0,12.33-4.96,21.71-14.2,27.07l20.1,34.84H308.09z"/>
	<path class="st1" d="M446.5,908.22c-0.13,28-12.19,48.64-51.72,48.64c-39.66,0-51.72-20.63-51.72-48.64
		c0-27.87,12.06-48.64,51.72-48.64C434.31,859.58,446.37,880.35,446.5,908.22z M421.58,908.22c0-18.36-5.76-26.93-26.8-26.93
		c-21.17,0-26.8,8.58-26.93,26.93c0.13,18.36,5.76,27.07,26.93,27.07C415.82,935.28,421.58,926.57,421.58,908.22z"/>
	<path class="st1" d="M530.11,861.32v22.91h-72.22v-22.91H530.11z M506.13,896.16v58.95h-24.25v-58.95H506.13z"/>
	<path class="st1" d="M695.32,884.23H546.86v-22.91h148.46V884.23z M696.26,932.2v22.91h-149.4v-58.02h145.38v21.97H571.11v13.13
		H696.26z"/>
	<path class="st1" d="M736.99,884.23v23.18c0,20.23,10.45,24.79,24.12,24.79h71.01v22.91h-71.01c-34.43,0-49.44-17.55-49.44-47.7
		v-23.18l25.32-22.91h95.13v22.91H736.99z"/>
	<path class="st1" d="M1014.89,861.32v93.79h-24.25v-35.37H876.48v35.37h-24.25v-93.79h24.25v35.51h114.16v-35.51H1014.89z"/>
</g>
</svg>
